<svg id="Capa_1" enable-background="new 0 0 512 512" height="512" viewBox="0 0 512 512" width="512" xmlns="http://www.w3.org/2000/svg"><g><path d="m446 292h-380c-24.813 0-45 20.187-45 45v130c0 24.813 20.187 45 45 45h380c24.813 0 45-20.187 45-45v-130c0-24.813-20.187-45-45-45zm-311.532 174.913c-11.463.063-19.283.093-24.67.093-11.169 0-11.886-.123-12.966-.309-7.201-1.234-12.465-7.478-12.465-14.784v-99.916c0-8.284 6.716-15 15-15s15 6.716 15 15v84.994c6-.012 13.148-.04 19.933-.078h.086c8.245 0 14.952 6.66 14.998 14.916.046 8.284-6.632 15.037-14.916 15.084zm69.921-14.916c0 8.284-6.716 15-15 15s-15-6.716-15-15v-100c0-8.284 6.716-15 15-15s15 6.716 15 15zm125.341-95.088-32.651 98.286c-.011.034-.022.068-.034.103-2.363 6.948-8.882 11.649-16.222 11.698-.039.001-.078.001-.116.001-7.293 0-13.817-4.602-16.261-11.481-.012-.034-.024-.067-.036-.102l-34.19-98.498c-2.717-7.826 1.425-16.373 9.251-19.09 7.828-2.712 16.374 1.427 19.089 9.252l21.882 63.038 20.817-62.664c2.612-7.863 11.102-12.119 18.964-9.507s12.119 11.103 9.507 18.964zm79.796 30.088c8.284 0 15 6.716 15 15s-6.716 15-15 15h-24.029v20h27.136c8.284 0 15 6.716 15 15s-6.716 15-15 15h-42.136c-8.284 0-15-6.716-15-15v-100c0-8.284 6.716-15 15-15h42.136c8.284 0 15 6.716 15 15s-6.716 15-15 15h-27.136v20z"/><g><circle cx="256" cy="195" r="15"/><path d="m256 0c-107.523 0-195 87.477-195 195 0 23.529 4.189 46.098 11.86 67h366.28c7.671-20.902 11.86-43.471 11.86-67 0-107.523-87.477-195-195-195zm0 30c8.284 0 15 6.716 15 15s-6.716 15-15 15-15-6.716-15-15 6.716-15 15-15zm-150 180c-8.284 0-15-6.716-15-15s6.716-15 15-15 15 6.716 15 15-6.716 15-15 15zm33.087-82.5c-4.142 7.174-13.316 9.633-20.49 5.49-7.174-4.142-9.633-13.316-5.49-20.49 4.142-7.174 13.316-9.633 20.49-5.49 7.174 4.142 9.632 13.316 5.49 20.49zm49.413-49.414c-7.174 4.142-16.348 1.684-20.49-5.49s-1.684-16.348 5.49-20.49 16.348-1.684 20.49 5.49c4.143 7.175 1.684 16.348-5.49 20.49zm137.5 131.914h-27.58c-6.192 17.459-22.865 30-42.42 30-24.813 0-45-20.187-45-45 0-19.555 12.541-36.228 30-42.42v-47.58c0-8.284 6.716-15 15-15s15 6.716 15 15v47.58c12.764 4.527 22.893 14.656 27.42 27.42h27.58c8.284 0 15 6.716 15 15s-6.716 15-15 15zm17.99-137.404c-4.142 7.174-13.316 9.633-20.49 5.49-7.174-4.142-9.633-13.316-5.49-20.49 4.142-7.174 13.316-9.633 20.49-5.49 7.174 4.142 9.633 13.316 5.49 20.49zm28.923 54.904c-4.142-7.174-1.684-16.348 5.49-20.49s16.348-1.684 20.49 5.49 1.684 16.348-5.49 20.49c-7.174 4.143-16.347 1.684-20.49-5.49zm33.087 82.5c-8.284 0-15-6.716-15-15s6.716-15 15-15 15 6.716 15 15-6.716 15-15 15z"/></g></g></svg>